PathFileType	4	(X/Y/Z)	 2.8Hzhigh3min.trc
DataRate	CameraRate	NumFrames	NumMarkers	Units	OrigDataRate	OrigDataStartFrame	OrigNumFrames
200	200	9	43	m	200	1	1000
Frame#	Time	C7			LSH			RSH			MAN			RASI			LASI			HIPR			HIPL			RPSI			LPSI			COX			RTHI1			RTHI2			RTHI3			RTHI4			RLKN			RMKN			RSHA1			RSHA2			RSHA3			RSHA4			RLMAL			RMMAL			RHEEL			RMET5			RMET1			RTOE			LTHI1			LTHI2			LTHI3			LTHI4			LLKN			LMKN			LSHA1			LSHA2			LSHA3			LSHA4			LLMAL			LMMAL			LHEEL			LMET5			LMET1			LTOE			
		X1	Y1	Z1	X2	Y2	Z2	X3	Y3	Z3	X4	Y4	Z4	X5	Y5	Z5	X6	Y6	Z6	X7	Y7	Z7	X8	Y8	Z8	X9	Y9	Z9	X10	Y10	Z10	X11	Y11	Z11	X12	Y12	Z12	X13	Y13	Z13	X14	Y14	Z14	X15	Y15	Z15	X16	Y16	Z16	X17	Y17	Z17	X18	Y18	Z18	X19	Y19	Z19	X20	Y20	Z20	X21	Y21	Z21	X22	Y22	Z22	X23	Y23	Z23	X24	Y24	Z24	X25	Y25	Z25	X26	Y26	Z26	X27	Y27	Z27	X28	Y28	Z28	X29	Y29	Z29	X30	Y30	Z30	X31	Y31	Z31	X32	Y32	Z32	X33	Y33	Z33	X34	Y34	Z34	X35	Y35	Z35	X36	Y36	Z36	X37	Y37	Z37	X38	Y38	Z38	X39	Y39	Z39	X40	Y40	Z40	X41	Y41	Z41	X42	Y42	Z42	X43	Y43	Z43	
1	0.0050	-0.253853	1.421289	-0.526058	-0.180378	1.410774	-0.693476	-0.158870	1.399861	-0.387725	-0.128158	1.359918	-0.541857	-0.111018	0.930379	-0.420321	-0.145604	0.930821	-0.662354	-0.156655	0.990686	-0.395162	-0.196498	0.995801	-0.677169	-0.281496	0.967782	-0.488603	-0.293946	0.965191	-0.551806	-0.292319	0.962332	-0.520635	-0.186468	0.741694	-0.356254	-0.166226	0.685371	-0.357777	-0.104617	0.703390	-0.364671	-0.116842	0.763883	-0.363571	-0.144918	0.497616	-0.380788	-0.146788	0.484350	-0.504517	-0.243792	0.350438	-0.377279	-0.249040	0.311257	-0.385991	-0.197682	0.296219	-0.370586	-0.185552	0.338497	-0.364145	-0.241726	0.157646	-0.396641	-0.224421	0.159330	-0.472653	-0.294816	0.159168	-0.430855	-0.170151	0.054778	-0.384861	-0.144387	0.056181	-0.451600	-0.123218	0.046219	-0.450340	-0.246430	0.756000	-0.702432	-0.226123	0.698492	-0.710148	-0.164501	0.715449	-0.721948	-0.177859	0.773949	-0.717473	-0.183005	0.485772	-0.708372	-0.163538	0.484556	-0.591218	-0.280176	0.316487	-0.695276	-0.286210	0.277636	-0.684278	-0.230111	0.267476	-0.708816	-0.230826	0.310932	-0.716694	-0.269047	0.159663	-0.688955	-0.247294	0.157837	-0.614541	-0.315014	0.167093	-0.635835	-0.210091	0.055073	-0.702334	-0.174648	0.054261	-0.641116	-0.157290	0.042483	-0.645277	
2	0.0100	-0.254020	1.415706	-0.526118	-0.180836	1.405348	-0.693289	-0.158870	1.394766	-0.387963	-0.127676	1.354285	-0.541689	-0.110837	0.924776	-0.420634	-0.145749	0.925312	-0.662695	-0.156081	0.985321	-0.395246	-0.196748	0.990302	-0.677348	-0.281257	0.962751	-0.488286	-0.293734	0.960053	-0.551703	-0.292088	0.957245	-0.520393	-0.185963	0.736174	-0.355779	-0.165555	0.679994	-0.357506	-0.104086	0.698131	-0.365147	-0.116563	0.758581	-0.364177	-0.143317	0.492058	-0.380507	-0.145638	0.478739	-0.504069	-0.243102	0.345620	-0.376304	-0.248909	0.306580	-0.384712	-0.197519	0.291079	-0.369752	-0.184995	0.333230	-0.363433	-0.243692	0.152991	-0.395341	-0.226559	0.154340	-0.471402	-0.296596	0.155034	-0.428985	-0.173454	0.048313	-0.383887	-0.147853	0.050127	-0.451306	-0.126884	0.040235	-0.450072	-0.246482	0.751117	-0.702626	-0.226189	0.693542	-0.710445	-0.164555	0.710544	-0.722187	-0.177853	0.769042	-0.717484	-0.181679	0.480183	-0.709124	-0.161970	0.478987	-0.592047	-0.279587	0.311475	-0.696117	-0.285864	0.272650	-0.685123	-0.229771	0.262177	-0.709505	-0.230110	0.305611	-0.717358	-0.270129	0.154796	-0.689696	-0.248761	0.152938	-0.615072	-0.316418	0.162662	-0.636654	-0.212654	0.048083	-0.701606	-0.177048	0.049054	-0.638798	-0.159706	0.038773	-0.641886	
3	0.0150	-0.254281	1.409815	-0.526096	-0.181435	1.399957	-0.693122	-0.158943	1.389646	-0.388072	-0.127574	1.348513	-0.541631	-0.110578	0.919009	-0.420877	-0.145810	0.919699	-0.663041	-0.155473	0.979744	-0.395244	-0.196931	0.984553	-0.677585	-0.281046	0.957492	-0.487927	-0.293386	0.954587	-0.551585	-0.291849	0.951951	-0.520116	-0.185510	0.730383	-0.355466	-0.164908	0.674307	-0.357208	-0.103568	0.692623	-0.365510	-0.116312	0.753020	-0.364767	-0.141781	0.486229	-0.380207	-0.144527	0.472812	-0.503600	-0.242851	0.340776	-0.374854	-0.249062	0.301726	-0.383183	-0.197692	0.285686	-0.368802	-0.184675	0.327722	-0.362708	-0.246387	0.148435	-0.393861	-0.229931	0.149526	-0.470203	-0.299500	0.150265	-0.426679	-0.175711	0.044244	-0.382341	-0.148455	0.047869	-0.451187	-0.126857	0.038021	-0.451464	-0.246430	0.745960	-0.702848	-0.226125	0.688365	-0.710867	-0.164481	0.705452	-0.722657	-0.177746	0.763931	-0.717623	-0.180351	0.474368	-0.710052	-0.160417	0.473175	-0.593040	-0.279999	0.306466	-0.697258	-0.286696	0.267778	-0.686100	-0.230479	0.256664	-0.709847	-0.230263	0.299982	-0.717860	-0.273222	0.150504	-0.690125	-0.252284	0.148554	-0.615270	-0.319748	0.158125	-0.637493	-0.213628	0.045494	-0.702205	-0.177450	0.047402	-0.638468	-0.159417	0.037850	-0.640165	
4	0.0200	-0.254578	1.403871	-0.526079	-0.182061	1.394599	-0.692994	-0.159034	1.384540	-0.388184	-0.127438	1.342731	-0.541590	-0.110296	0.913219	-0.421092	-0.145838	0.914078	-0.663391	-0.154872	0.974115	-0.395200	-0.197104	0.978751	-0.677845	-0.280839	0.952187	-0.487571	-0.293059	0.949103	-0.551452	-0.291617	0.946609	-0.519837	-0.185054	0.724529	-0.355147	-0.164255	0.668557	-0.356893	-0.103043	0.687047	-0.365806	-0.116047	0.747391	-0.365286	-0.140242	0.480313	-0.379918	-0.143436	0.466806	-0.503104	-0.242700	0.335939	-0.373389	-0.249339	0.296887	-0.381645	-0.198008	0.280280	-0.367876	-0.184470	0.322183	-0.361992	-0.249171	0.143943	-0.392391	-0.233515	0.144809	-0.469006	-0.302435	0.145667	-0.424356	-0.177325	0.040615	-0.381453	-0.149784	0.045425	-0.450927	-0.127783	0.035671	-0.452285	-0.246317	0.740722	-0.703050	-0.226003	0.683123	-0.711309	-0.164365	0.700299	-0.723179	-0.177608	0.758759	-0.717835	-0.178999	0.468481	-0.710987	-0.158880	0.467293	-0.594093	-0.280658	0.301574	-0.698323	-0.287828	0.263066	-0.687080	-0.231471	0.251247	-0.710139	-0.230703	0.294462	-0.718318	-0.276294	0.146276	-0.690549	-0.256048	0.144380	-0.615450	-0.323086	0.153785	-0.638373	-0.215532	0.042602	-0.702430	-0.178834	0.045663	-0.637770	-0.160243	0.036598	-0.638554	
5	0.0250	-0.254972	1.397738	-0.526036	-0.182769	1.389306	-0.692931	-0.159172	1.379502	-0.388208	-0.127474	1.336924	-0.541599	-0.109939	0.907341	-0.421235	-0.145775	0.908412	-0.663749	-0.154274	0.968318	-0.395052	-0.197230	0.972771	-0.678163	-0.280648	0.946721	-0.487208	-0.292701	0.943461	-0.551292	-0.291391	0.941121	-0.519547	-0.184611	0.718473	-0.354891	-0.163605	0.662586	-0.356544	-0.102509	0.681271	-0.365947	-0.115767	0.741563	-0.365680	-0.138752	0.474181	-0.379637	-0.142383	0.460559	-0.502544	-0.242841	0.331090	-0.371727	-0.249872	0.291967	-0.380015	-0.198613	0.274745	-0.366935	-0.184503	0.316503	-0.361329	-0.252282	0.139606	-0.390868	-0.237792	0.140315	-0.467832	-0.305824	0.140960	-0.421822	-0.178932	0.038065	-0.380411	-0.150787	0.044378	-0.450694	-0.128226	0.034679	-0.453112	-0.246087	0.735262	-0.703280	-0.225748	0.677690	-0.711849	-0.164125	0.694985	-0.723852	-0.177377	0.753412	-0.718174	-0.177660	0.462437	-0.711997	-0.157387	0.461202	-0.595321	-0.281973	0.296865	-0.699477	-0.289722	0.258609	-0.688175	-0.233142	0.245924	-0.710274	-0.231779	0.289029	-0.718689	-0.280130	0.142394	-0.690856	-0.260810	0.140652	-0.615469	-0.327279	0.149521	-0.639306	-0.217391	0.041357	-0.702938	-0.179963	0.045336	-0.637372	-0.160457	0.036390	-0.637424	
6	0.0300	-0.255480	1.391510	-0.525994	-0.183540	1.384151	-0.692980	-0.159358	1.374603	-0.388134	-0.127482	1.331186	-0.541636	-0.109508	0.901434	-0.421291	-0.145615	0.902750	-0.664115	-0.153715	0.962379	-0.394778	-0.197324	0.966663	-0.678530	-0.280460	0.941140	-0.486858	-0.292409	0.937787	-0.551074	-0.291188	0.935513	-0.519235	-0.184172	0.712280	-0.354610	-0.162964	0.656470	-0.356136	-0.101973	0.675346	-0.365902	-0.115465	0.735592	-0.365860	-0.137306	0.467909	-0.379402	-0.141380	0.454135	-0.501863	-0.243194	0.326260	-0.369972	-0.250596	0.287058	-0.378338	-0.199425	0.269204	-0.366057	-0.184732	0.310787	-0.360748	-0.255414	0.135439	-0.389352	-0.242356	0.136095	-0.466701	-0.309259	0.136470	-0.419239	-0.180023	0.036807	-0.379486	-0.151359	0.044413	-0.450275	-0.128079	0.034437	-0.453955	-0.245745	0.729594	-0.703555	-0.225367	0.672087	-0.712491	-0.163779	0.689514	-0.724630	-0.177068	0.747901	-0.718629	-0.176371	0.456347	-0.713031	-0.155907	0.454956	-0.596747	-0.283707	0.292474	-0.700616	-0.292069	0.254510	-0.689274	-0.235252	0.240922	-0.710346	-0.233343	0.283927	-0.719065	-0.283865	0.138680	-0.691174	-0.265838	0.137342	-0.615480	-0.331480	0.145621	-0.640335	-0.218588	0.040932	-0.703465	-0.180710	0.045458	-0.637926	-0.160587	0.036274	-0.637199	
7	0.0350	-0.256117	1.385253	-0.525953	-0.184359	1.379163	-0.693165	-0.159609	1.369897	-0.387963	-0.127469	1.325609	-0.541712	-0.108987	0.895514	-0.421247	-0.145339	0.897127	-0.664492	-0.153219	0.956292	-0.394354	-0.197376	0.960444	-0.678954	-0.280295	0.935439	-0.486510	-0.292152	0.932063	-0.550848	-0.291017	0.929810	-0.518929	-0.183783	0.706005	-0.354257	-0.162349	0.650277	-0.355658	-0.101459	0.669374	-0.365624	-0.115192	0.729569	-0.365756	-0.135968	0.461641	-0.379211	-0.140420	0.447649	-0.501018	-0.243635	0.321469	-0.368227	-0.251412	0.282213	-0.376622	-0.200310	0.263774	-0.365268	-0.185074	0.305175	-0.360247	-0.258330	0.131489	-0.387905	-0.246891	0.132158	-0.465598	-0.312539	0.132315	-0.416724	-0.180557	0.036055	-0.378780	-0.152289	0.044287	-0.449597	-0.128678	0.034274	-0.453916	-0.245318	0.723722	-0.703984	-0.224876	0.666301	-0.713275	-0.163326	0.683880	-0.725512	-0.176694	0.742217	-0.719224	-0.175258	0.450385	-0.714063	-0.154517	0.448566	-0.598415	-0.285639	0.288461	-0.701828	-0.294630	0.250812	-0.690559	-0.237531	0.236355	-0.710475	-0.235125	0.279277	-0.719474	-0.287290	0.135162	-0.691554	-0.270783	0.134364	-0.615500	-0.335583	0.141978	-0.641420	-0.220009	0.040251	-0.703661	-0.182013	0.045545	-0.638143	-0.161431	0.036155	-0.636937	
8	0.0400	-0.256873	1.379153	-0.525926	-0.185163	1.374421	-0.693491	-0.159933	1.365491	-0.387618	-0.127391	1.320327	-0.541814	-0.108370	0.889648	-0.421076	-0.144949	0.891604	-0.664881	-0.152815	0.950087	-0.393781	-0.197384	0.954164	-0.679421	-0.280167	0.929662	-0.486177	-0.291955	0.926352	-0.550628	-0.290902	0.924064	-0.518629	-0.183504	0.699866	-0.353757	-0.161832	0.644235	-0.355097	-0.101034	0.663577	-0.365123	-0.115025	0.723716	-0.365334	-0.134883	0.455657	-0.379043	-0.139565	0.441347	-0.500004	-0.244013	0.316773	-0.366605	-0.252171	0.277532	-0.374948	-0.201105	0.258606	-0.364594	-0.185427	0.299827	-0.359868	-0.260770	0.127819	-0.386531	-0.251047	0.128562	-0.464553	-0.315457	0.128517	-0.414431	-0.181403	0.035129	-0.378245	-0.153359	0.044421	-0.449258	-0.129239	0.034133	-0.454211	-0.244876	0.717756	-0.704717	-0.224317	0.660402	-0.714223	-0.162801	0.678156	-0.726451	-0.176293	0.736438	-0.719964	-0.174514	0.444823	-0.715081	-0.153261	0.442184	-0.600317	-0.287486	0.284875	-0.703179	-0.297094	0.247522	-0.692107	-0.239664	0.232312	-0.710732	-0.236835	0.275170	-0.719967	-0.290203	0.131839	-0.692027	-0.275176	0.131618	-0.615586	-0.339390	0.138496	-0.642558	-0.221607	0.039623	-0.704267	-0.182965	0.045787	-0.638019	-0.161892	0.036077	-0.636819	
9	0.0450	-0.257720	1.373458	-0.525906	-0.185914	1.370022	-0.693936	-0.160326	1.361492	-0.387082	-0.127308	1.315522	-0.541914	-0.107666	0.883931	-0.420750	-0.144467	0.886257	-0.665293	-0.152541	0.943821	-0.393078	-0.197352	0.947897	-0.679903	-0.280101	0.923861	-0.485862	-0.291844	0.920717	-0.550414	-0.290880	0.918341	-0.518334	-0.183401	0.694156	-0.353087	-0.161502	0.638621	-0.354456	-0.100783	0.658221	-0.364446	-0.115023	0.718306	-0.364625	-0.134209	0.450267	-0.378864	-0.138938	0.435579	-0.498886	-0.244287	0.312344	-0.365065	-0.252774	0.273145	-0.373343	-0.201680	0.253865	-0.364069	-0.185685	0.294941	-0.359638	-0.262695	0.124444	-0.385317	-0.254545	0.125348	-0.463629	-0.317942	0.125011	-0.412424	-0.182330	0.034380	-0.377400	-0.154137	0.044548	-0.448866	-0.129638	0.034023	-0.454177	-0.244506	0.711897	-0.705778	-0.223765	0.654603	-0.715279	-0.162265	0.672547	-0.727361	-0.175940	0.730771	-0.720832	-0.174315	0.439954	-0.716066	-0.152272	0.436047	-0.602361	-0.289061	0.281698	-0.704729	-0.299193	0.244577	-0.693784	-0.241445	0.228774	-0.711096	-0.238257	0.271585	-0.720584	-0.292570	0.128707	-0.692594	-0.278780	0.129028	-0.615770	-0.342734	0.135181	-0.643691	-0.222373	0.038984	-0.704816	-0.183521	0.045846	-0.638215	-0.162105	0.036013	-0.636700	
